# xmcd CD database file
# Copyright (C) 1993-1998 Ti Kan
#
# Track frame offsets:
# 150
# 14879
# 37137
# 52425
# 74359
# 90219
# 106136
# 121926
# 142601
# 157549
# 169709
# 186565
# 198766
# 215458
# 229036
# 248521
# 263582
# 284774
#
# Disc length: 4210 seconds
# Revision: 0
# Processed by: cddbd v1.4b41PL1 Copyright (c) Steve Scherf et al.
# Submitted via: CDSpectrumPro v3.3.331
#
DISCID=f9107012
DTITLE=The Shoppe - "So, What Kinda Music D'You Guys Play?"
DYEAR=1900
DGENRE=
TTITLE0=Where Were You?
TTITLE1=Takin' Care Of Business
TTITLE2=Third Rate Romance (Low Rate Rendezvous)
TTITLE3=Mercy, Mercy, Mercy
TTITLE4=Statue of a Fool
TTITLE5=Strange Kind of Magic
TTITLE6=Fast as You
TTITLE7=Peg
TTITLE8=Colour My World
TTITLE9=Refried Dreams
TTITLE10=If You Don't Know Me By Now
TTITLE11=If Bubba Can Dance, I Can, Too
TTITLE12=At This Moment
TTITLE13=Vehicle
TTITLE14=Wildflower
TTITLE15=China Grove
TTITLE16=Keeper of the Stars
TTITLE17=Sing, Sing, Sing
EXTD=
EXTT0=
EXTT1=
EXTT2=
EXTT3=
EXTT4=
EXTT5=
EXTT6=
EXTT7=
EXTT8=
EXTT9=
EXTT10=
EXTT11=
EXTT12=
EXTT13=
EXTT14=
EXTT15=
EXTT16=
EXTT17=
PLAYORDER=
